<mxfile host="app.diagrams.net" agent="Mozilla/5.0 (Windows NT 10.0; Win64; x64) AppleWebKit/537.36 (KHTML, like Gecko) Chrome/132.0.0.0 Safari/537.36" version="26.0.13">
  <diagram id="C5RBs43oDa-KdzZeNtuy" name="Page-1">
    <mxGraphModel dx="1050" dy="1885" grid="1" gridSize="10" guides="1" tooltips="1" connect="1" arrows="1" fold="1" page="1" pageScale="1" pageWidth="827" pageHeight="1169" math="0" shadow="0">
      <root>
        <mxCell id="WIyWlLk6GJQsqaUBKTNV-0" />
        <mxCell id="WIyWlLk6GJQsqaUBKTNV-1" parent="WIyWlLk6GJQsqaUBKTNV-0" />
        <mxCell id="tR497tWXx0o7Z0_piQqV-3" value="" style="edgeStyle=orthogonalEdgeStyle;rounded=0;orthogonalLoop=1;jettySize=auto;html=1;entryX=0.5;entryY=0;entryDx=0;entryDy=0;" edge="1" parent="WIyWlLk6GJQsqaUBKTNV-1" source="tR497tWXx0o7Z0_piQqV-0" target="tR497tWXx0o7Z0_piQqV-1">
          <mxGeometry relative="1" as="geometry">
            <mxPoint x="530" y="120" as="targetPoint" />
          </mxGeometry>
        </mxCell>
        <mxCell id="tR497tWXx0o7Z0_piQqV-0" value="&lt;font style=&quot;font-size: 15px;&quot;&gt;Start&lt;/font&gt;" style="ellipse;whiteSpace=wrap;html=1;" vertex="1" parent="WIyWlLk6GJQsqaUBKTNV-1">
          <mxGeometry x="414" y="-150" width="120" height="80" as="geometry" />
        </mxCell>
        <mxCell id="tR497tWXx0o7Z0_piQqV-5" value="" style="edgeStyle=orthogonalEdgeStyle;rounded=0;orthogonalLoop=1;jettySize=auto;html=1;" edge="1" parent="WIyWlLk6GJQsqaUBKTNV-1" source="tR497tWXx0o7Z0_piQqV-1" target="tR497tWXx0o7Z0_piQqV-4">
          <mxGeometry relative="1" as="geometry" />
        </mxCell>
        <mxCell id="tR497tWXx0o7Z0_piQqV-1" value="&lt;font&gt;Set Search Location&lt;/font&gt;" style="rounded=0;whiteSpace=wrap;html=1;" vertex="1" parent="WIyWlLk6GJQsqaUBKTNV-1">
          <mxGeometry x="640" y="50" width="120" height="60" as="geometry" />
        </mxCell>
        <mxCell id="tR497tWXx0o7Z0_piQqV-7" value="Random Site" style="edgeStyle=orthogonalEdgeStyle;rounded=0;orthogonalLoop=1;jettySize=auto;html=1;" edge="1" parent="WIyWlLk6GJQsqaUBKTNV-1" source="tR497tWXx0o7Z0_piQqV-4" target="tR497tWXx0o7Z0_piQqV-6">
          <mxGeometry y="13" relative="1" as="geometry">
            <mxPoint x="1" y="1" as="offset" />
          </mxGeometry>
        </mxCell>
        <mxCell id="tR497tWXx0o7Z0_piQqV-9" value="Site fidelity Phermones" style="edgeStyle=orthogonalEdgeStyle;rounded=0;orthogonalLoop=1;jettySize=auto;html=1;" edge="1" parent="WIyWlLk6GJQsqaUBKTNV-1" source="tR497tWXx0o7Z0_piQqV-4" target="tR497tWXx0o7Z0_piQqV-8">
          <mxGeometry relative="1" as="geometry" />
        </mxCell>
        <mxCell id="tR497tWXx0o7Z0_piQqV-4" value="Travel To Site" style="rounded=0;whiteSpace=wrap;html=1;" vertex="1" parent="WIyWlLk6GJQsqaUBKTNV-1">
          <mxGeometry x="645" y="300" width="110" height="50" as="geometry" />
        </mxCell>
        <mxCell id="tR497tWXx0o7Z0_piQqV-12" value="" style="edgeStyle=orthogonalEdgeStyle;rounded=0;orthogonalLoop=1;jettySize=auto;html=1;" edge="1" parent="WIyWlLk6GJQsqaUBKTNV-1" source="tR497tWXx0o7Z0_piQqV-6" target="tR497tWXx0o7Z0_piQqV-11">
          <mxGeometry relative="1" as="geometry" />
        </mxCell>
        <mxCell id="tR497tWXx0o7Z0_piQqV-15" value="Find and collect resource" style="edgeStyle=orthogonalEdgeStyle;rounded=0;orthogonalLoop=1;jettySize=auto;html=1;fillColor=#d5e8d4;strokeColor=#82b366;" edge="1" parent="WIyWlLk6GJQsqaUBKTNV-1" source="tR497tWXx0o7Z0_piQqV-6" target="tR497tWXx0o7Z0_piQqV-14">
          <mxGeometry relative="1" as="geometry" />
        </mxCell>
        <mxCell id="tR497tWXx0o7Z0_piQqV-20" style="edgeStyle=orthogonalEdgeStyle;rounded=0;orthogonalLoop=1;jettySize=auto;html=1;fillColor=#ffe6cc;strokeColor=#d79b00;" edge="1" parent="WIyWlLk6GJQsqaUBKTNV-1" source="tR497tWXx0o7Z0_piQqV-6">
          <mxGeometry relative="1" as="geometry">
            <mxPoint x="250" y="250" as="targetPoint" />
          </mxGeometry>
        </mxCell>
        <mxCell id="tR497tWXx0o7Z0_piQqV-6" value="Search with uninformed walk" style="rounded=0;whiteSpace=wrap;html=1;" vertex="1" parent="WIyWlLk6GJQsqaUBKTNV-1">
          <mxGeometry x="270" y="250" width="110" height="50" as="geometry" />
        </mxCell>
        <mxCell id="tR497tWXx0o7Z0_piQqV-18" style="edgeStyle=orthogonalEdgeStyle;rounded=0;orthogonalLoop=1;jettySize=auto;html=1;fillColor=#d5e8d4;strokeColor=#82b366;entryX=0.5;entryY=1;entryDx=0;entryDy=0;" edge="1" parent="WIyWlLk6GJQsqaUBKTNV-1" source="tR497tWXx0o7Z0_piQqV-8" target="tR497tWXx0o7Z0_piQqV-14">
          <mxGeometry relative="1" as="geometry">
            <mxPoint x="90" y="280" as="targetPoint" />
          </mxGeometry>
        </mxCell>
        <mxCell id="tR497tWXx0o7Z0_piQqV-19" value="Give up Search" style="edgeStyle=orthogonalEdgeStyle;rounded=0;orthogonalLoop=1;jettySize=auto;html=1;entryX=0;entryY=0.75;entryDx=0;entryDy=0;fillColor=#ffe6cc;strokeColor=#d79b00;" edge="1" parent="WIyWlLk6GJQsqaUBKTNV-1">
          <mxGeometry relative="1" as="geometry">
            <mxPoint x="325" y="346.25" as="sourcePoint" />
            <mxPoint x="270" y="203.75" as="targetPoint" />
            <Array as="points">
              <mxPoint x="325" y="316.25" />
              <mxPoint x="250" y="316.25" />
              <mxPoint x="250" y="204.25" />
            </Array>
          </mxGeometry>
        </mxCell>
        <mxCell id="tR497tWXx0o7Z0_piQqV-8" value="Search with informed walk" style="rounded=0;whiteSpace=wrap;html=1;" vertex="1" parent="WIyWlLk6GJQsqaUBKTNV-1">
          <mxGeometry x="270" y="350" width="110" height="50" as="geometry" />
        </mxCell>
        <mxCell id="tR497tWXx0o7Z0_piQqV-22" value="Is Congested" style="edgeStyle=orthogonalEdgeStyle;rounded=0;orthogonalLoop=1;jettySize=auto;html=1;exitX=1;exitY=0.25;exitDx=0;exitDy=0;" edge="1" parent="WIyWlLk6GJQsqaUBKTNV-1" source="tR497tWXx0o7Z0_piQqV-25" target="tR497tWXx0o7Z0_piQqV-21">
          <mxGeometry relative="1" as="geometry" />
        </mxCell>
        <mxCell id="tR497tWXx0o7Z0_piQqV-11" value="Return to Nest with no resource" style="rounded=0;whiteSpace=wrap;html=1;" vertex="1" parent="WIyWlLk6GJQsqaUBKTNV-1">
          <mxGeometry x="270" y="170" width="110" height="50" as="geometry" />
        </mxCell>
        <mxCell id="tR497tWXx0o7Z0_piQqV-26" value="" style="edgeStyle=orthogonalEdgeStyle;rounded=0;orthogonalLoop=1;jettySize=auto;html=1;" edge="1" parent="WIyWlLk6GJQsqaUBKTNV-1" source="tR497tWXx0o7Z0_piQqV-14" target="tR497tWXx0o7Z0_piQqV-25">
          <mxGeometry relative="1" as="geometry" />
        </mxCell>
        <mxCell id="tR497tWXx0o7Z0_piQqV-14" value="Sense local resource density" style="rounded=0;whiteSpace=wrap;html=1;" vertex="1" parent="WIyWlLk6GJQsqaUBKTNV-1">
          <mxGeometry x="30" y="170" width="110" height="50" as="geometry" />
        </mxCell>
        <mxCell id="tR497tWXx0o7Z0_piQqV-27" style="edgeStyle=orthogonalEdgeStyle;rounded=0;orthogonalLoop=1;jettySize=auto;html=1;entryX=0;entryY=0.5;entryDx=0;entryDy=0;" edge="1" parent="WIyWlLk6GJQsqaUBKTNV-1" source="tR497tWXx0o7Z0_piQqV-21" target="tR497tWXx0o7Z0_piQqV-1">
          <mxGeometry relative="1" as="geometry" />
        </mxCell>
        <mxCell id="tR497tWXx0o7Z0_piQqV-21" value="Dropoff resource" style="rounded=0;whiteSpace=wrap;html=1;" vertex="1" parent="WIyWlLk6GJQsqaUBKTNV-1">
          <mxGeometry x="160" y="-60" width="110" height="50" as="geometry" />
        </mxCell>
        <mxCell id="tR497tWXx0o7Z0_piQqV-28" style="edgeStyle=orthogonalEdgeStyle;rounded=0;orthogonalLoop=1;jettySize=auto;html=1;" edge="1" parent="WIyWlLk6GJQsqaUBKTNV-1" source="tR497tWXx0o7Z0_piQqV-25">
          <mxGeometry relative="1" as="geometry">
            <mxPoint x="460" y="80" as="targetPoint" />
          </mxGeometry>
        </mxCell>
        <mxCell id="tR497tWXx0o7Z0_piQqV-25" value="Return to Nest with Resource" style="rounded=0;whiteSpace=wrap;html=1;" vertex="1" parent="WIyWlLk6GJQsqaUBKTNV-1">
          <mxGeometry x="30" y="40" width="110" height="50" as="geometry" />
        </mxCell>
        <mxCell id="tR497tWXx0o7Z0_piQqV-51" value="" style="edgeStyle=orthogonalEdgeStyle;rounded=0;orthogonalLoop=1;jettySize=auto;html=1;" edge="1" parent="WIyWlLk6GJQsqaUBKTNV-1" source="tR497tWXx0o7Z0_piQqV-52" target="tR497tWXx0o7Z0_piQqV-55">
          <mxGeometry relative="1" as="geometry" />
        </mxCell>
        <mxCell id="tR497tWXx0o7Z0_piQqV-52" value="&lt;font&gt;Set Search Location&lt;/font&gt;" style="rounded=0;whiteSpace=wrap;html=1;" vertex="1" parent="WIyWlLk6GJQsqaUBKTNV-1">
          <mxGeometry x="670" y="960" width="120" height="60" as="geometry" />
        </mxCell>
        <mxCell id="tR497tWXx0o7Z0_piQqV-53" value="Random Site" style="edgeStyle=orthogonalEdgeStyle;rounded=0;orthogonalLoop=1;jettySize=auto;html=1;" edge="1" parent="WIyWlLk6GJQsqaUBKTNV-1" source="tR497tWXx0o7Z0_piQqV-55" target="tR497tWXx0o7Z0_piQqV-59">
          <mxGeometry y="13" relative="1" as="geometry">
            <mxPoint x="1" y="1" as="offset" />
          </mxGeometry>
        </mxCell>
        <mxCell id="tR497tWXx0o7Z0_piQqV-54" value="Site fidelity Phermones" style="edgeStyle=orthogonalEdgeStyle;rounded=0;orthogonalLoop=1;jettySize=auto;html=1;" edge="1" parent="WIyWlLk6GJQsqaUBKTNV-1" source="tR497tWXx0o7Z0_piQqV-55" target="tR497tWXx0o7Z0_piQqV-62">
          <mxGeometry relative="1" as="geometry" />
        </mxCell>
        <mxCell id="tR497tWXx0o7Z0_piQqV-55" value="Travel To Site" style="rounded=0;whiteSpace=wrap;html=1;" vertex="1" parent="WIyWlLk6GJQsqaUBKTNV-1">
          <mxGeometry x="675" y="1210" width="110" height="50" as="geometry" />
        </mxCell>
        <mxCell id="tR497tWXx0o7Z0_piQqV-56" value="" style="edgeStyle=orthogonalEdgeStyle;rounded=0;orthogonalLoop=1;jettySize=auto;html=1;" edge="1" parent="WIyWlLk6GJQsqaUBKTNV-1" source="tR497tWXx0o7Z0_piQqV-59" target="tR497tWXx0o7Z0_piQqV-64">
          <mxGeometry relative="1" as="geometry" />
        </mxCell>
        <mxCell id="tR497tWXx0o7Z0_piQqV-57" value="Find and collect resource" style="edgeStyle=orthogonalEdgeStyle;rounded=0;orthogonalLoop=1;jettySize=auto;html=1;fillColor=#d5e8d4;strokeColor=#82b366;" edge="1" parent="WIyWlLk6GJQsqaUBKTNV-1" source="tR497tWXx0o7Z0_piQqV-59" target="tR497tWXx0o7Z0_piQqV-66">
          <mxGeometry relative="1" as="geometry" />
        </mxCell>
        <mxCell id="tR497tWXx0o7Z0_piQqV-58" style="edgeStyle=orthogonalEdgeStyle;rounded=0;orthogonalLoop=1;jettySize=auto;html=1;fillColor=#ffe6cc;strokeColor=#d79b00;" edge="1" parent="WIyWlLk6GJQsqaUBKTNV-1" source="tR497tWXx0o7Z0_piQqV-59">
          <mxGeometry relative="1" as="geometry">
            <mxPoint x="280" y="1160" as="targetPoint" />
          </mxGeometry>
        </mxCell>
        <mxCell id="tR497tWXx0o7Z0_piQqV-59" value="Search with uninformed walk" style="rounded=0;whiteSpace=wrap;html=1;" vertex="1" parent="WIyWlLk6GJQsqaUBKTNV-1">
          <mxGeometry x="300" y="1160" width="110" height="50" as="geometry" />
        </mxCell>
        <mxCell id="tR497tWXx0o7Z0_piQqV-60" style="edgeStyle=orthogonalEdgeStyle;rounded=0;orthogonalLoop=1;jettySize=auto;html=1;fillColor=#d5e8d4;strokeColor=#82b366;entryX=0.5;entryY=1;entryDx=0;entryDy=0;" edge="1" parent="WIyWlLk6GJQsqaUBKTNV-1" source="tR497tWXx0o7Z0_piQqV-62" target="tR497tWXx0o7Z0_piQqV-66">
          <mxGeometry relative="1" as="geometry">
            <mxPoint x="120" y="1190" as="targetPoint" />
          </mxGeometry>
        </mxCell>
        <mxCell id="tR497tWXx0o7Z0_piQqV-61" value="Give up Search" style="edgeStyle=orthogonalEdgeStyle;rounded=0;orthogonalLoop=1;jettySize=auto;html=1;entryX=0;entryY=0.75;entryDx=0;entryDy=0;fillColor=#ffe6cc;strokeColor=#d79b00;" edge="1" parent="WIyWlLk6GJQsqaUBKTNV-1">
          <mxGeometry relative="1" as="geometry">
            <mxPoint x="355" y="1256.25" as="sourcePoint" />
            <mxPoint x="300" y="1113.75" as="targetPoint" />
            <Array as="points">
              <mxPoint x="355" y="1226.25" />
              <mxPoint x="280" y="1226.25" />
              <mxPoint x="280" y="1114.25" />
            </Array>
          </mxGeometry>
        </mxCell>
        <mxCell id="tR497tWXx0o7Z0_piQqV-62" value="Search with informed walk" style="rounded=0;whiteSpace=wrap;html=1;" vertex="1" parent="WIyWlLk6GJQsqaUBKTNV-1">
          <mxGeometry x="300" y="1260" width="110" height="50" as="geometry" />
        </mxCell>
        <mxCell id="tR497tWXx0o7Z0_piQqV-73" value="Is Congested" style="edgeStyle=orthogonalEdgeStyle;rounded=0;orthogonalLoop=1;jettySize=auto;html=1;" edge="1" parent="WIyWlLk6GJQsqaUBKTNV-1" source="tR497tWXx0o7Z0_piQqV-64" target="tR497tWXx0o7Z0_piQqV-72">
          <mxGeometry relative="1" as="geometry" />
        </mxCell>
        <mxCell id="tR497tWXx0o7Z0_piQqV-64" value="Return to Nest" style="rounded=0;whiteSpace=wrap;html=1;" vertex="1" parent="WIyWlLk6GJQsqaUBKTNV-1">
          <mxGeometry x="300" y="1080" width="110" height="50" as="geometry" />
        </mxCell>
        <mxCell id="tR497tWXx0o7Z0_piQqV-65" value="" style="edgeStyle=orthogonalEdgeStyle;rounded=0;orthogonalLoop=1;jettySize=auto;html=1;entryX=0;entryY=0.5;entryDx=0;entryDy=0;" edge="1" parent="WIyWlLk6GJQsqaUBKTNV-1" source="tR497tWXx0o7Z0_piQqV-66" target="tR497tWXx0o7Z0_piQqV-64">
          <mxGeometry relative="1" as="geometry">
            <mxPoint x="135" y="1000" as="targetPoint" />
          </mxGeometry>
        </mxCell>
        <mxCell id="tR497tWXx0o7Z0_piQqV-66" value="Sense local resource density" style="rounded=0;whiteSpace=wrap;html=1;" vertex="1" parent="WIyWlLk6GJQsqaUBKTNV-1">
          <mxGeometry x="90" y="1080" width="110" height="50" as="geometry" />
        </mxCell>
        <mxCell id="tR497tWXx0o7Z0_piQqV-74" style="edgeStyle=orthogonalEdgeStyle;rounded=0;orthogonalLoop=1;jettySize=auto;html=1;entryX=0;entryY=0.5;entryDx=0;entryDy=0;" edge="1" parent="WIyWlLk6GJQsqaUBKTNV-1" source="tR497tWXx0o7Z0_piQqV-72" target="tR497tWXx0o7Z0_piQqV-52">
          <mxGeometry relative="1" as="geometry" />
        </mxCell>
        <mxCell id="tR497tWXx0o7Z0_piQqV-72" value="Dropoff Resource/Stop returning to nest" style="rounded=0;whiteSpace=wrap;html=1;" vertex="1" parent="WIyWlLk6GJQsqaUBKTNV-1">
          <mxGeometry x="300" y="950" width="110" height="50" as="geometry" />
        </mxCell>
        <mxCell id="tR497tWXx0o7Z0_piQqV-75" style="edgeStyle=orthogonalEdgeStyle;rounded=0;orthogonalLoop=1;jettySize=auto;html=1;entryX=0.092;entryY=0.967;entryDx=0;entryDy=0;entryPerimeter=0;" edge="1" parent="WIyWlLk6GJQsqaUBKTNV-1" source="tR497tWXx0o7Z0_piQqV-64" target="tR497tWXx0o7Z0_piQqV-52">
          <mxGeometry relative="1" as="geometry" />
        </mxCell>
        <mxCell id="tR497tWXx0o7Z0_piQqV-77" style="edgeStyle=orthogonalEdgeStyle;rounded=0;orthogonalLoop=1;jettySize=auto;html=1;entryX=0.5;entryY=0;entryDx=0;entryDy=0;" edge="1" parent="WIyWlLk6GJQsqaUBKTNV-1" source="tR497tWXx0o7Z0_piQqV-76" target="tR497tWXx0o7Z0_piQqV-52">
          <mxGeometry relative="1" as="geometry" />
        </mxCell>
        <mxCell id="tR497tWXx0o7Z0_piQqV-76" value="Start" style="ellipse;whiteSpace=wrap;html=1;" vertex="1" parent="WIyWlLk6GJQsqaUBKTNV-1">
          <mxGeometry x="450" y="810" width="120" height="80" as="geometry" />
        </mxCell>
      </root>
    </mxGraphModel>
  </diagram>
</mxfile>
